<?xml version="1.0" standalone="no"?>
<!DOCTYPE svg PUBLIC "-//W3C//DTD SVG 20010904//EN"
 "http://www.w3.org/TR/2001/REC-SVG-20010904/DTD/svg10.dtd">
<svg version="1.0" xmlns="http://www.w3.org/2000/svg"
 width="700.000000pt" height="616.000000pt" viewBox="0 0 700.000000 616.000000"
 preserveAspectRatio="xMidYMid meet">
<metadata>
Created by potrace 1.16, written by Peter Selinger 2001-2019
</metadata>
<g transform="translate(0.000000,616.000000) scale(0.100000,-0.100000)"
fill="#000000" stroke="none">
<path d="M4340 5480 l0 -170 30 0 30 0 0 170 0 170 -30 0 -30 0 0 -170z"/>
<path d="M3823 5564 c-7 -3 -10 -11 -8 -17 2 -7 25 -78 50 -159 26 -83 51
-148 58 -148 33 1 41 17 28 62 -77 266 -84 279 -128 262z"/>
<path d="M3356 5331 c-17 -19 -15 -24 74 -155 80 -118 95 -134 111 -126 10 6
20 14 23 18 5 8 -149 241 -178 270 -10 10 -16 9 -30 -7z"/>
<path d="M5215 5208 c-2 -7 -19 -58 -36 -113 -78 -247 -156 -325 -402 -404
-53 -17 -104 -31 -112 -31 -10 0 -15 -10 -15 -29 0 -28 3 -30 118 -66 64 -20
143 -51 175 -68 115 -60 190 -173 244 -362 27 -95 27 -96 57 -93 29 3 31 7 56
95 35 122 91 232 144 285 67 67 185 123 354 168 38 10 43 14 40 37 -2 18 -11
29 -28 34 -260 76 -345 125 -421 241 -29 46 -82 185 -115 306 -2 6 -15 12 -29
12 -14 0 -28 -6 -30 -12z m118 -329 c58 -98 162 -174 315 -229 l63 -23 -85
-32 c-199 -75 -276 -152 -352 -353 l-31 -83 -28 78 c-36 103 -74 168 -131 226
-57 59 -113 92 -221 133 l-84 31 63 23 c209 75 303 169 378 378 l23 64 32 -84
c17 -46 43 -104 58 -129z"/>
<path d="M4138 5031 c-109 -24 -172 -45 -267 -88 -166 -75 -349 -223 -461
-375 -57 -75 -159 -262 -150 -272 3 -2 16 -7 30 -10 23 -6 27 -1 54 59 114
256 362 481 640 580 137 49 249 68 396 67 148 -2 261 -23 404 -77 95 -35 100
-36 113 -19 7 10 13 21 13 25 0 12 -149 70 -249 96 -134 35 -393 42 -523 14z"/>
<path d="M2973 4978 c-5 -7 -13 -18 -16 -24 -4 -7 48 -54 125 -114 122 -97
132 -102 144 -85 8 10 14 22 14 26 0 6 -134 115 -246 201 -7 5 -15 3 -21 -4z"/>
<path d="M4203 4805 c-206 -37 -380 -132 -531 -289 -43 -45 -98 -115 -122
-155 -46 -77 -112 -230 -105 -242 3 -4 16 -9 29 -11 22 -4 27 1 46 56 108 301
376 527 693 582 96 17 97 18 97 46 0 32 -1 32 -107 13z"/>
<path d="M4298 4548 c-37 -21 -68 -69 -68 -105 0 -12 -19 -28 -55 -47 -71 -37
-138 -111 -166 -184 -33 -84 -32 -198 3 -274 56 -122 169 -206 290 -214 103
-8 127 -14 148 -36 27 -30 25 -73 -5 -103 -24 -24 -28 -25 -182 -25 -192 0
-232 -13 -263 -82 -25 -54 -25 -72 0 -123 27 -55 68 -77 154 -83 l71 -4 17
-39 c44 -103 204 -106 252 -5 9 19 16 42 16 53 1 12 18 26 51 42 212 104 257
403 85 575 -65 65 -136 96 -244 104 -108 9 -132 24 -132 83 0 29 6 42 26 58
25 19 40 21 188 21 138 0 166 3 196 19 92 49 96 187 7 241 -23 15 -51 20 -102
20 l-70 1 -20 42 c-39 81 -122 109 -197 65z m127 -63 c14 -13 25 -34 25 -46 0
-45 26 -59 111 -59 94 0 105 -4 125 -42 18 -36 12 -70 -18 -98 -20 -18 -35
-20 -182 -20 -182 0 -213 -8 -254 -70 -43 -64 -18 -154 53 -193 11 -6 58 -13
105 -17 58 -4 101 -13 131 -28 151 -73 217 -258 146 -405 -30 -61 -91 -120
-147 -144 -52 -22 -70 -42 -70 -78 0 -54 -57 -92 -110 -74 -32 12 -50 35 -50
65 0 40 -29 54 -112 54 -75 0 -81 2 -109 29 -17 18 -29 40 -29 56 0 16 12 38
29 56 l29 29 164 0 c145 0 167 2 196 20 49 30 74 76 69 127 -9 88 -49 115
-188 130 -101 11 -165 40 -216 96 -135 150 -94 384 83 473 69 34 83 49 84 88
0 69 86 101 135 51z"/>
<path d="M3057 4343 c-2 -5 -14 -42 -27 -83 -54 -182 -119 -244 -313 -301 -71
-21 -77 -25 -77 -50 0 -25 6 -29 97 -58 185 -60 247 -126 302 -321 16 -60 20
-65 46 -65 26 0 30 5 55 85 34 109 59 156 107 201 48 46 107 77 203 105 70 20
75 24 78 51 3 29 1 30 -64 48 -92 25 -197 79 -230 118 -36 42 -78 132 -99 212
-17 60 -20 65 -46 65 -15 0 -30 -3 -32 -7z m76 -220 c45 -95 131 -163 262
-207 16 -6 9 -12 -37 -30 -146 -60 -212 -128 -258 -270 l-13 -39 -26 66 c-50
127 -122 198 -244 242 l-58 21 70 28 c115 45 197 132 238 252 16 46 17 47 26
24 6 -14 24 -53 40 -87z"/>
<path d="M5469 4213 c-15 -4 -15 -10 2 -76 102 -392 -21 -814 -319 -1099 -535
-511 -1398 -385 -1769 257 -22 39 -51 96 -64 128 -23 59 -33 66 -62 45 -15
-12 -13 -19 13 -81 136 -314 409 -562 735 -666 131 -42 223 -55 375 -54 193 1
353 39 523 123 341 171 593 516 647 889 14 93 8 363 -9 421 -5 19 -15 54 -21
78 -10 41 -16 45 -51 35z"/>
<path d="M5293 3952 c-22 -3 -23 -8 -23 -98 0 -346 -206 -666 -525 -815 -68
-32 -187 -69 -222 -69 -19 0 -23 -6 -23 -30 0 -38 17 -39 134 -5 167 48 304
133 427 263 177 187 268 413 269 669 0 45 -3 83 -7 85 -5 2 -18 2 -30 0z"/>
<path d="M1041 3428 c-66 -25 -136 -92 -171 -163 l-25 -50 0 -735 0 -735 25
-50 c31 -64 92 -124 155 -156 49 -24 56 -24 336 -27 274 -3 288 -2 344 19 73
27 153 103 181 172 15 39 23 47 39 44 11 -3 326 -137 701 -300 375 -162 717
-306 760 -320 119 -37 216 -51 354 -51 142 1 259 20 383 64 122 43 1947 875
1984 905 39 30 58 88 49 142 -12 61 -146 188 -257 242 -137 66 -281 87 -423
60 -32 -6 -279 -89 -549 -185 -269 -96 -493 -174 -497 -174 -4 0 -9 38 -12 84
-4 72 -10 96 -41 160 -43 85 -113 156 -192 192 -27 12 -176 59 -329 103 -254
74 -283 84 -323 118 -436 374 -795 466 -1225 317 -56 -20 -136 -53 -179 -74
l-77 -39 -11 51 c-22 102 -83 183 -170 228 -22 11 -179 56 -349 100 -341 88
-388 94 -481 58z m478 -118 c218 -57 317 -87 350 -107 54 -34 107 -115 116
-177 8 -57 -130 -1237 -151 -1295 -22 -57 -88 -123 -145 -145 -39 -15 -80 -17
-324 -14 -246 3 -284 5 -316 21 -53 26 -99 75 -126 133 l-23 52 2 713 c3 683
4 716 22 753 26 52 79 104 130 127 74 34 134 26 465 -61z m1260 -200 c221 -28
484 -162 704 -359 37 -34 73 -61 79 -61 24 0 575 -163 608 -180 61 -31 115
-86 151 -152 33 -60 34 -67 34 -168 0 -87 -3 -111 -20 -139 -30 -51 -67 -74
-117 -73 -24 0 -333 53 -687 116 -355 64 -645 115 -646 113 -10 -12 -13 -57
-5 -57 5 0 298 -52 651 -115 352 -63 660 -115 684 -115 24 0 56 5 72 11 36 13
88 64 103 98 10 24 55 42 512 204 276 98 527 185 557 193 72 18 211 18 286 -1
107 -27 201 -81 282 -160 61 -60 73 -78 73 -104 0 -47 -15 -68 -68 -95 -112
-57 -1902 -865 -1947 -880 -119 -38 -200 -49 -350 -49 -158 0 -234 12 -363 56
-37 12 -379 157 -759 322 -675 292 -693 301 -693 327 0 15 27 260 60 543 33
283 60 520 60 525 0 12 131 79 234 120 121 48 276 82 396 89 14 0 63 -4 109
-9z"/>
<path d="M1370 2135 l0 -135 30 0 30 0 0 135 0 135 -30 0 -30 0 0 -135z"/>
<path d="M5015 1859 c-264 -120 -490 -223 -502 -228 -20 -9 -21 -13 -11 -36 8
-17 17 -24 27 -20 92 34 991 452 991 460 0 6 -6 18 -12 27 -12 14 -68 -9 -493
-203z"/>
<path d="M4155 1469 c-71 -32 -136 -59 -144 -59 -9 0 -11 -8 -6 -27 4 -16 8
-29 10 -31 4 -5 122 42 217 86 86 40 88 42 76 67 -6 14 -14 25 -17 24 -3 -1
-64 -27 -136 -60z"/>
<path d="M3767 3144 c-17 -22 -16 -23 15 -48 82 -62 267 -156 307 -156 12 0
24 36 16 50 -3 5 -11 10 -17 10 -23 0 -184 82 -241 124 l-62 44 -18 -24z"/>
</g>
</svg>
